<svg xmlns="http://www.w3.org/2000/svg" viewBox="0 0 512 512" width="512" height="512">
  <defs>
    <radialGradient id="bgFR" cx="50%" cy="40%" r="70%">
      <stop offset="0%" stop-color="#FAF8F3"/>
      <stop offset="100%" stop-color="#E8E2D4"/>
    </radialGradient>
    <radialGradient id="coinR" cx="35%" cy="30%" r="75%">
      <stop offset="0%" stop-color="#FFE4D6"/>
      <stop offset="30%" stop-color="#E8B098"/>
      <stop offset="65%" stop-color="#C08060"/>
      <stop offset="100%" stop-color="#6E3F2A"/>
    </radialGradient>
    <linearGradient id="rimR" x1="0" y1="0" x2="0" y2="1">
      <stop offset="0%" stop-color="#D89878"/>
      <stop offset="100%" stop-color="#5A2F1E"/>
    </linearGradient>
  </defs>

  <rect width="512" height="512" rx="96" fill="url(#bgFR)"/>
  <ellipse cx="256" cy="410" rx="150" ry="18" fill="#000" opacity="0.18"/>

  <g transform="translate(256 256)">
    <circle r="170" fill="url(#rimR)"/>
    <circle r="160" fill="url(#coinR)"/>
    <circle r="140" fill="none" stroke="#5A2F1E" stroke-width="3" opacity="0.5"/>
    <circle r="130" fill="none" stroke="#FFE4D6" stroke-width="1.5" opacity="0.5"/>

    <g fill="#5A2F1E" opacity="0.5">
      <circle cx="0" cy="-118" r="4"/>
      <circle cx="59" cy="-102" r="4"/>
      <circle cx="102" cy="-59" r="4"/>
      <circle cx="118" cy="0" r="4"/>
      <circle cx="102" cy="59" r="4"/>
      <circle cx="59" cy="102" r="4"/>
      <circle cx="0" cy="118" r="4"/>
      <circle cx="-59" cy="102" r="4"/>
      <circle cx="-102" cy="59" r="4"/>
      <circle cx="-118" cy="0" r="4"/>
      <circle cx="-102" cy="-59" r="4"/>
      <circle cx="-59" cy="-102" r="4"/>
    </g>

    <text x="0" y="38" text-anchor="middle"
          font-family="'Cinzel','Times New Roman',serif"
          font-size="180" font-weight="900"
          fill="#5A2F1E">$</text>
    <text x="-2" y="36" text-anchor="middle"
          font-family="'Cinzel','Times New Roman',serif"
          font-size="180" font-weight="900"
          fill="#FFE4D6" opacity="0.3">$</text>

    <ellipse cx="-70" cy="-80" rx="50" ry="22" fill="#FFF0E6" opacity="0.6" transform="rotate(-30 -70 -80)"/>
    <ellipse cx="60" cy="90" rx="40" ry="10" fill="#FFE4D6" opacity="0.2" transform="rotate(-30 60 90)"/>
  </g>
</svg>
